# xmcd
#
# Track frame offsets: 
#        150
#        14937
#        29109
#        56330
#        67837
#        83311
#        96748
#        112755
#        127069
#        143751
#        157176
#        169690
#        182203
#        194719
#        206913
#        221013
#        234190
#
# Disc length: 3297 seconds
#
# Revision: 1
# Processed by: cddbd v1.5.2PL0 Copyright (c) Steve Scherf et al.
# Submitted via: ExactAudioCopy v0.99pb4
#
DISCID=fd0cdf11
DTITLE=Henry Red Allen - Quadromania [CD3]
DYEAR=2005
DGENRE=Jazz
TTITLE0=Indiana (Take 2)
TTITLE1=Jack The Bellboy (Take 2)
TTITLE2=The Theme
TTITLE3=Ride, Red, Ride
TTITLE4=Just A Feeling
TTITLE5=Dark Eyes
TTITLE6=Dear Old Southland
TTITLE7=Red Jump
TTITLE8=Get The Mop
TTITLE9=The Crawl
TTITLE10=Buzz Me
TTITLE11=Drink Hearty
TTITLE12=Get The Mop
TTITLE13=Count Me Out
TTITLE14=Check Up
TTITLE15=If It's Love You Want
TTITLE16=Let Me Miss You
EXTD=YEAR: 1941
EXTT0=
EXTT1=
EXTT2=
EXTT3=
EXTT4=
EXTT5=
EXTT6=
EXTT7=
EXTT8=
EXTT9=
EXTT10=
EXTT11=
EXTT12=
EXTT13=
EXTT14=
EXTT15=
EXTT16=
PLAYORDER=
